# xmcd
#
# Track frame offsets: 
#        150
#        18933
#        43553
#        62898
#        82991
#        104630
#        128121
#        148181
#        186441
#        199605
#        220947
#        247617
#
# Disc length: 3570 seconds
#
# Revision: 0
# Processed by: cddbd v1.5.2PL0 Copyright (c) Steve Scherf et al.
# Submitted via: ExactAudioCopy v0.99pb5
#
DISCID=a80df00c
DTITLE=Santana  - Capitol Theater - 1970-10-14  
DYEAR=1900
DGENRE=
TTITLE0=Se A Cabo
TTITLE1=Black Magic Woman\\Gypsy Queen
TTITLE2=Savor
TTITLE3=Jingo
TTITLE4=Oye Como Va
TTITLE5=Toussaint L'Overture
TTITLE6=Evil Ways
TTITLE7=Treat
TTITLE8=Persuasion
TTITLE9=Gumbo
TTITLE10=Incident At Neshabur
TTITLE11=Conquistadore Rides Again
EXTD=
EXTT0=
EXTT1=
EXTT2=
EXTT3=
EXTT4=
EXTT5=
EXTT6=
EXTT7=
EXTT8=
EXTT9=
EXTT10=
EXTT11=
PLAYORDER=
